<?xml version="1.0" encoding="iso-8859-1"?>
<!-- Generator: Adobe Illustrator 25.2.3, SVG Export Plug-In . SVG Version: 6.00 Build 0)  -->
<svg version="1.1" id="&#xB808;&#xC774;&#xC5B4;_1" xmlns="http://www.w3.org/2000/svg" xmlns:xlink="http://www.w3.org/1999/xlink"
	 x="0px" y="0px" viewBox="0 0 139 127" style="enable-background:new 0 0 139 127;" xml:space="preserve">
<g>
	<path style="fill:#FFFFFF;" d="M69.511,30.723c0,0,16.932-11.093,24.389-6.603c7.259,4.376,14.642,4.339,14.642,4.339
		l-8.611,13.546l0.42,2.926l5.458,4.844l-0.176,2.583l0.15,4.361l-10.378,0.245c0,0-4.38,2.401-4.738,3.604
		c-1.176,4.092,5.907,15.995,5.907,15.995l3.699-8.839l0-0.877l-1.963-5.054l10.973,6.829l1.523,10.264l0.415,1.973l0.379,4.591
		l0.494,4.521c0,0,2.71,6.382,4.304,5.605c4.384-2.17,3.857-8.784,3.857-8.784l-1.588-10.965l-0.598-2.859l1.619-7.228l-1.35-10.521
		l0.683-0.22c0,0,6.984,1.425,9.777,0.694C136.642,53.608,139,50.405,139,50.405l-2.254-15.855l-8.883-0.235l5.68,14.403
		l-8.188,0.967l-7.119-3.117l6.373-3.795l-2.65-5.265l-4.164-1.763l-5.873,1.601l-1.441,5.455l-0.091-0.104l-3.85-2.393
		c0,0,9.552-11.189,7.947-15.167c-0.804-1.989-8.507-3.064-11.458-3.689c-2.394-0.511-6.043-2.446-9.062-3.858
		C84.724,13.254,72.21,19.83,72.21,19.83L69.511,30.723z"/>
	<g>
		<path style="fill:#FFFFFF;" d="M18.497,26.885l4.949-4.36l18.413,0.345l19.614-6.458L81.806,2.422L73.75,0l-9.069,8.952
			c0,0-13.883,6.447-19.564,7.441c-3.6,0.629-17.113,0.452-17.113,0.452l-10.536,2.251c0,0-4.234,2.73-5.447,5.27
			c-0.513,1.105,0.097,4.824,0.097,4.824L18.497,26.885z"/>
		<polygon style="fill:#FFFFFF;" points="28.156,35.259 21.378,27.954 13.24,33.678 15.623,39.288 27.745,43.078 37.627,41.64 
			44.118,37.358 43.967,32.094 39.512,28.579 35.781,28.092 31.025,29.722 35.391,31.92 34.322,34.903 		"/>
		<path style="fill:#FFFFFF;" d="M52.189,93.044l10.826,9.006l0.621,20.376c0,0,1.384,3.278,1.957,3.783
			c2.727,2.321,4.31-1.129,4.31-1.129l4.324-29.95l-0.614-5.663l-12.906-9.862l-3.174-1.277l0.696-10.125l-0.902-6.072l1.964-4.457
			c0,0,12.414-3.369,15.29-5.044c2.74-1.62,6.996-7.943,6.996-7.943l9.755-4.979l0.621-6.865l-10.202,7.01l-17.03,2
			c0,0-2.718,0.541-3.512,1.013c-5.631,3.328-8.824,9.501-8.824,9.501l-1.543-7.305l-11.413-1.567l-6.143,10.063l5.982,5.366
			l-0.646,1.98l-1.876,0.18c0,0-7.63,2.262-10.259,2.207c-1.387-0.007-5.439-1.372-5.439-1.372l-7.98-11.175L0,55.117l14.716,9.209
			c0,0,4.612,6.953,6.793,8.487c1.031,0.731,3.485,2.153,4.712,2.311c5.402,0.724,9.467-1.103,9.467-1.103l3.834-2.741l1.598,4.636
			l-6.514,2.808l-8.386,0.81l-3.9,5.172l-0.183,17.43l8.393,2.614c0,0-0.306-12.149,3.117-15.123
			c1.279-1.112,6.097-1.325,6.097-1.325L52.189,93.044z"/>
	</g>
</g>
</svg>
