<?xml version="1.0" encoding="iso-8859-1"?>
<!-- Generator: Adobe Illustrator 25.2.3, SVG Export Plug-In . SVG Version: 6.00 Build 0)  -->
<svg version="1.1" id="&#xB808;&#xC774;&#xC5B4;_1" xmlns="http://www.w3.org/2000/svg" xmlns:xlink="http://www.w3.org/1999/xlink"
	 x="0px" y="0px" viewBox="0 0 156 77" style="enable-background:new 0 0 156 77;" xml:space="preserve">
<g>
	<polygon style="fill:#FFFFFF;" points="66.361,2.867 71.704,3.02 119.426,6.276 122.206,17.187 68.828,15.392 	"/>
	<polygon style="fill:#FFFFFF;" points="55.092,4.064 52.358,49.083 44.212,48.747 33.657,42.396 39.919,1.834 51.398,2.967 	"/>
	<polygon style="fill:#FFFFFF;" points="150.265,9.837 156,53.244 148.037,54.942 136.275,51.396 132.767,9.617 146.232,8.863 	"/>
	<polygon style="fill:#FFFFFF;" points="39.919,1.834 45.942,0.008 58.377,0 71.704,3.02 73.041,10.309 68.828,15.392 
		57.291,13.616 52.824,14.596 	"/>
	<polygon style="fill:#FFFFFF;" points="119.424,6.302 138.234,6.957 150.265,9.837 150.063,16.837 141.216,36.742 132.378,16.675 
		122.206,17.187 117.41,11.331 	"/>
	<polygon style="fill:#FFFFFF;" points="70.44,14.065 70.323,47.557 76.808,49.543 81.7,49.683 83.497,12.822 72.332,10.718 	"/>
	<polygon style="fill:#FFFFFF;" points="105.34,12.787 106.494,48.076 111.774,49.616 120.689,47.672 116.687,11.46 	"/>
</g>
<polygon style="fill:#FFFFFF;" points="0,44.259 38.934,47.961 66.516,50.115 155.405,53.402 151.316,39.168 71.089,38.23 
	42.728,37.415 8.406,35.365 4.997,38.616 "/>
<polygon style="fill:#FFFFFF;" points="44.653,56.904 47.273,63.549 56.972,72.909 63.747,72.06 74.497,63.29 73.174,52.308 
	67.196,46.764 57.973,46.47 51.868,48.842 "/>
<polygon style="fill:#FFFFFF;" points="107.752,58.746 110.581,65.983 121.356,76.057 129.031,74.99 141.358,65.152 140.083,53.13 
	133.437,47.168 123.018,47.03 116.069,49.756 "/>
</svg>
