<?xml version="1.0" encoding="iso-8859-1"?>
<!-- Generator: Adobe Illustrator 25.2.3, SVG Export Plug-In . SVG Version: 6.00 Build 0)  -->
<svg version="1.1" id="&#xB808;&#xC774;&#xC5B4;_1" xmlns="http://www.w3.org/2000/svg" xmlns:xlink="http://www.w3.org/1999/xlink"
	 x="0px" y="0px" viewBox="0 0 162 88" style="enable-background:new 0 0 162 88;" xml:space="preserve">
<g>
	<g>
		<path style="fill:#FFFFFF;" d="M41.592,3.425L23.937,30.807L10.321,44.54L0,37.727c0,0,10.647-6.631,13.706-9.735
			C19.819,21.803,33.82,0,33.82,0L41.592,3.425z"/>
		<polygon style="fill:#FFFFFF;" points="107.928,7.457 134.343,35.456 152.067,48.236 162,42.055 151.747,36.997 131.829,22.255 
			113.027,4.601 		"/>
		<g>
			<polygon style="fill:#FFFFFF;" points="59.525,42.363 66.926,18.701 72.255,19.255 71.39,31.26 67.651,40.568 			"/>
			<polygon style="fill:#FFFFFF;" points="43.523,39.908 55.234,18.636 61.555,18.425 55.754,32.05 49.344,39.474 			"/>
			<polygon style="fill:#FFFFFF;" points="28.671,34.703 43.08,16.748 49.527,17.846 44.152,29.427 31.431,34.815 			"/>
			<polygon style="fill:#FFFFFF;" points="96.518,43.093 84.009,19.844 78.4,19.473 82.013,31.668 89.478,41.693 			"/>
			<polygon style="fill:#FFFFFF;" points="114.035,41.062 97.292,19.451 90.926,19.054 97.368,32.183 111.205,40.526 			"/>
			<polygon style="fill:#FFFFFF;" points="128.81,36.751 110.141,18.348 103.974,19.319 111.276,30.034 123.349,36.776 			"/>
		</g>
		<path style="fill:#FFFFFF;" d="M47.018,4.24l-5.472,6.438c0,0,26.961,4.573,46.101,4.819c7.089,0.089,21.008-2.217,21.008-2.217
			l-3.161-3.405L47.018,4.24z"/>
	</g>
	<g>
		<g>
			<polygon style="fill:#FFFFFF;" points="49.16,55.687 54.235,55.477 99.679,55.402 103.037,65.559 52.329,67.393 			"/>
			<polygon style="fill:#FFFFFF;" points="38.56,57.567 36.557,86.247 28.814,86.468 18.39,81.148 24.032,56.459 34.986,56.772 			
				"/>
			<polygon style="fill:#FFFFFF;" points="129.143,56.734 135.06,83.324 127.625,85.462 116.243,82.88 112.544,57.685 
				125.256,56.078 			"/>
			<polygon style="fill:#FFFFFF;" points="24.032,56.459 29.619,54.329 41.404,53.498 54.235,55.477 55.985,62.297 52.329,67.393 
				41.277,66.474 37.108,67.7 			"/>
			<polygon style="fill:#FFFFFF;" points="99.679,55.427 117.549,54.802 129.143,56.734 129.415,63.382 119.955,68.664 
				112.643,64.4 103.037,65.559 98.103,60.326 			"/>
			<polygon style="fill:#FFFFFF;" points="53.769,66.029 53.482,83.61 59.76,85.063 64.405,84.871 66.061,63.986 55.34,62.731 			
				"/>
			<polygon style="fill:#FFFFFF;" points="86.76,62.506 87.798,81.706 92.904,82.816 101.225,80.383 97.426,60.497 			"/>
		</g>
		<polygon style="fill:#FFFFFF;" points="28.814,86.468 65.959,87.397 92.243,87.612 127.625,85.462 122.806,72.243 95.79,76.044 
			68.857,77.151 36.192,77.481 33.176,80.789 		"/>
	</g>
	<polygon style="fill:#FFFFFF;" points="33.079,43.371 28.242,45.899 59.74,49.524 81.25,50.857 140.683,47.159 132.943,44.154 
		88.12,45.869 65.769,44.992 	"/>
</g>
</svg>
