<svg id="Layer_1" data-name="Layer 1" xmlns="http://www.w3.org/2000/svg" viewBox="0 0 143.67 28.19"><defs><style>.cls-1{fill:#fff;}</style></defs><path class="cls-1" d="M56.21,20.83a8.32,8.32,0,0,1-1,2.77.73.73,0,0,0,0,.37,6.51,6.51,0,0,1-3.29,5.63,1.13,1.13,0,0,0-.36.36A6.47,6.47,0,0,1,46,33.22a1.24,1.24,0,0,0-.57.15,6.52,6.52,0,0,1-6.52,0,1.24,1.24,0,0,0-.57-.15A6.48,6.48,0,0,1,32.69,30a1.06,1.06,0,0,0-.36-.37,6.47,6.47,0,0,1-3.28-5.71,1.27,1.27,0,0,0-.13-.46,6.49,6.49,0,0,1,0-6.58,1.19,1.19,0,0,0,.13-.49,6.46,6.46,0,0,1,3.22-5.63,1.42,1.42,0,0,0,.44-.44,6.47,6.47,0,0,1,5.44-3.21A2.28,2.28,0,0,0,39,6.83a6.53,6.53,0,0,1,6.22,0,1.83,1.83,0,0,0,.78.22,6.5,6.5,0,0,1,5.53,3.26,1,1,0,0,0,.36.37,6.52,6.52,0,0,1,3.28,5.63,1.35,1.35,0,0,0,.17.6,8.25,8.25,0,0,1,.84,2.54Zm-7.7-7.1a3.8,3.8,0,0,0-6.39-2.62,3.8,3.8,0,0,0-6.4,2.64,3.81,3.81,0,0,0-2.65,6.41,3.79,3.79,0,0,0,2.65,6.38,3.8,3.8,0,0,0,6.4,2.64,3.81,3.81,0,0,0,6.41-2.64,3.8,3.8,0,0,0,2.64-6.39A3.82,3.82,0,0,0,48.51,13.73Z" transform="translate(-28.02 -6.05)"/><path class="cls-1" d="M44.09,20.17a2,2,0,1,1-1.94-2A2,2,0,0,1,44.09,20.17Z" transform="translate(-28.02 -6.05)"/><path class="cls-1" d="M43.26,24.28c.27-.12.54-.25.81-.34a.31.31,0,0,1,.28.06c.5.48,1,1,1.47,1.47a1.45,1.45,0,0,1,.2,1.75,1.52,1.52,0,0,1-1.6.69,1.44,1.44,0,0,1-1.16-1.36C43.23,25.79,43.26,25,43.26,24.28Z" transform="translate(-28.02 -6.05)"/><path class="cls-1" d="M36.72,19h-.94a1.47,1.47,0,0,1-1.41-1.11A1.53,1.53,0,0,1,35,16.26a1.45,1.45,0,0,1,1.79.19c.49.47,1,.95,1.44,1.45a.45.45,0,0,1,.06.35.87.87,0,0,1-1.17.76A2.94,2.94,0,0,0,36.72,19Z" transform="translate(-28.02 -6.05)"/><path class="cls-1" d="M45.86,18.08c.55-.57,1.09-1.16,1.67-1.7a1.41,1.41,0,0,1,1.69-.12,1.54,1.54,0,0,1,.66,1.61A1.43,1.43,0,0,1,48.56,19c-.72,0-1.44,0-2.16,0a.33.33,0,0,1-.23-.17C46.05,18.58,46,18.32,45.86,18.08Z" transform="translate(-28.02 -6.05)"/><path class="cls-1" d="M44.22,16.42l-1-.4c0-.77,0-1.54,0-2.31a1.43,1.43,0,0,1,1.19-1.34,1.54,1.54,0,0,1,1.56.7,1.45,1.45,0,0,1-.2,1.75C45.3,15.37,44.75,15.89,44.22,16.42Z" transform="translate(-28.02 -6.05)"/><path class="cls-1" d="M41,16l-.85.36c-.62-.58-1.26-1.11-1.82-1.72a1.34,1.34,0,0,1,0-1.69,1.53,1.53,0,0,1,1.61-.57A1.44,1.44,0,0,1,41,13.72C41,14.49,41,15.26,41,16Z" transform="translate(-28.02 -6.05)"/><path class="cls-1" d="M45.85,22.23l.39-.94c.78,0,1.57,0,2.35,0a1.44,1.44,0,0,1,1.3,1.14A1.54,1.54,0,0,1,49.23,24a1.42,1.42,0,0,1-1.75-.14C46.92,23.35,46.39,22.79,45.85,22.23Z" transform="translate(-28.02 -6.05)"/><path class="cls-1" d="M40.05,23.87a1.13,1.13,0,0,0,.22.11c.68.1.78.54.72,1.13s0,1,0,1.44a1.43,1.43,0,0,1-1.09,1.34,1.5,1.5,0,0,1-1.62-.6,1.41,1.41,0,0,1,.08-1.73C38.88,25,39.47,24.44,40.05,23.87Z" transform="translate(-28.02 -6.05)"/><path class="cls-1" d="M36.74,21.29h.45c.85,0,.86,0,1.14.81a.32.32,0,0,1-.07.28c-.49.51-1,1-1.5,1.49A1.42,1.42,0,0,1,35,24a1.51,1.51,0,0,1-.64-1.64,1.45,1.45,0,0,1,1.38-1.09Z" transform="translate(-28.02 -6.05)"/><path class="cls-1" d="M78.76,12.42H75.19c-.31,1.08-1,3.82-1.11,3.89,1,.86,4.64,2.18,4.54,4.32-.12,2.42-2.18,1.65-2.64.93a28.1,28.1,0,0,1-2.88-3.81l-.91,1.37C70.72,20.94,68.71,21.35,66,22l-.29-.48c5.54-3.36,5.18-6.92,5.3-9.1H68.78L67.6,13l-1.17-.62v-.48h8.4L76.94,11l1.82.94ZM71.32,29.56a1.17,1.17,0,0,1-1.17-.7,2.11,2.11,0,0,1-.17-.72V23.7h-1.2c-.17,0-.24-.07-.24-.24s.07-.24.24-.24h2.93a2.33,2.33,0,0,1,2.23,2.16v3.26a.57.57,0,0,0,0,.24.37.37,0,0,0,.38.22H81l2-.94,2,.94v.46ZM81.38,10.12,80.06,10a.24.24,0,0,1-.22-.24q0-.21.24-.21h0l5,.48V22.43c0,1-.93,1.65-1.87,2a10.11,10.11,0,0,1-1.87.43V16.07H79.7a1.65,1.65,0,0,1-1.49.89,1.68,1.68,0,0,1-1.68-1.68h4.85Z" transform="translate(-28.02 -6.05)"/><path class="cls-1" d="M89.47,20.75l-1.42.62-1.42-.62v-.48h8.79V18a7.51,7.51,0,0,1,1.87.07c1,.19,1.87.55,1.87,1.61v.55h4l2.35-1.59,2.35,1.59v.48Zm3.67-6.39v2.52a.57.57,0,0,0,0,.24.37.37,0,0,0,.38.22h8.09l2-.94,2,.94v.46H90.16a.87.87,0,0,1-.86-.48,1.61,1.61,0,0,1-.12-.48V11.22H88c-.17,0-.24-.07-.24-.24s.07-.24.24-.24h14l2-.94,2,.94v.48H93.14v2.64h7.2l2-.94,2,.94v.48l-11.21,0ZM105.41,26.6c0,2.31-3.51,4-7.85,4s-7.83-1.68-7.83-4c0-2.64,4.27-4.24,7.83-4.24h.64c.22,0,.44,0,.65,0C102.57,22.69,105.41,24.42,105.41,26.6Zm-4.52,0c0-1.84-.91-3.57-3.33-3.57s-3.32,1.73-3.32,3.57.84,3.32,3.32,3.32A3,3,0,0,0,100.89,26.6Z" transform="translate(-28.02 -6.05)"/><path class="cls-1" d="M112.36,17.32a1.16,1.16,0,0,1-1.17-.7,2.11,2.11,0,0,1-.17-.72V11.46h-1.2c-.17,0-.24-.07-.24-.24s.07-.24.24-.24h2.93A2.33,2.33,0,0,1,115,13.14V16.4a.57.57,0,0,0,0,.24.37.37,0,0,0,.38.22h7.85l2-.94,2,.94v.46H119a3.47,3.47,0,0,1,.63.28,1.82,1.82,0,0,1,1.17,1.64v1H125l2.35-1.59,2.35,1.59v.48H111.31l-1.42.62-1.42-.62v-.48H117V17.32Zm15.08,12.33v.46H113.35a1.27,1.27,0,0,1-1.3-.75,2.52,2.52,0,0,1-.17-.74V26.17h-.72c-.16,0-.24-.07-.24-.24s.08-.24.24-.24h12.29V22.81H115.2l-2,.94-2-.94v-.45h12l2-.94,2,.94v3.79H115.84V29.2a.93.93,0,0,0,0,.24.39.39,0,0,0,.39.21H122l2.68-1.27Z" transform="translate(-28.02 -6.05)"/><path class="cls-1" d="M143.76,18.54c0,3.77-2.88,6.86-6.15,6.86s-6.12-3.09-6.12-6.86,2.88-6.86,6.12-6.86S143.76,14.75,143.76,18.54Zm-3.53,0c0-2.95-.77-6.17-2.62-6.17S135,15.59,135,18.54s.79,6.17,2.61,6.17S140.23,21.54,140.23,18.54Zm10.29,8.93c0,1-.93,1.65-1.87,2a10.11,10.11,0,0,1-1.87.43V10.12L145.46,10a.24.24,0,0,1-.22-.24q0-.21.24-.21h0l5,.48Z" transform="translate(-28.02 -6.05)"/><path class="cls-1" d="M166.34,22.16a4.44,4.44,0,0,1-1.73,1.13,17.54,17.54,0,0,1-6.82,1.11h-3a.82.82,0,0,1-.84-.46,1.47,1.47,0,0,1-.12-.48V12.18H153c-.17,0-.24-.12-.24-.29s.07-.29.24-.29h8.25l2-.91,2,.91v.56h-7.45v5.47h.77l2-.91,2,.91v.6h-4.81v4.94a16.86,16.86,0,0,0,2.67,0,15,15,0,0,0,5.71-1.47Zm1.61-12L166.63,10a.23.23,0,0,1-.22-.24c0-.14.07-.21.24-.21h0l5,.48V27.47c0,1-.93,1.65-1.87,2a10.31,10.31,0,0,1-1.87.43V17.75h-1.2a1.65,1.65,0,0,1-1.49.89A1.67,1.67,0,0,1,163.58,17H168Z" transform="translate(-28.02 -6.05)"/></svg>