<?xml version="1.0" encoding="iso-8859-1"?>
<!-- Generator: Adobe Illustrator 25.2.3, SVG Export Plug-In . SVG Version: 6.00 Build 0)  -->
<svg version="1.1" id="&#xB808;&#xC774;&#xC5B4;_1" xmlns="http://www.w3.org/2000/svg" xmlns:xlink="http://www.w3.org/1999/xlink"
	 x="0px" y="0px" viewBox="0 0 147 84" style="enable-background:new 0 0 147 84;" xml:space="preserve">
<g>
	<g>
		<defs>
			<polygon id="SVGID_1_" points="11.995,69.553 19.581,79.698 32.956,83.352 52.14,82.367 65.911,74.349 68.292,53.419 
				25.296,58.319 8.33,57.976 			"/>
		</defs>
		<use xlink:href="#SVGID_1_"  style="overflow:visible;fill:#FFFFFF;"/>
		<clipPath id="SVGID_2_">
			<use xlink:href="#SVGID_1_"  style="overflow:visible;"/>
		</clipPath>
	</g>
	<polygon style="fill:#FFFFFF;" points="41.9,37.955 43.88,42.944 51.064,50.03 56.013,49.459 63.795,43.007 62.723,34.789 
		58.297,30.59 51.547,30.283 47.103,31.998 	"/>
	<polygon style="fill:#FFFFFF;" points="56.633,9.113 57.914,12.299 62.515,16.837 65.692,16.463 70.66,12.344 69.98,7.076 
		67.155,4.39 62.836,4.178 59.984,5.288 	"/>
	<polygon style="fill:#FFFFFF;" points="0,35.466 1.293,38.674 5.885,43.218 9.068,42.834 14.029,38.714 13.332,33.449 
		10.525,30.758 6.2,30.552 3.35,31.67 	"/>
	<polygon style="fill:#FFFFFF;" points="34.411,16.426 35.954,20.31 41.501,25.808 45.358,25.359 51.403,20.362 50.555,13.99 
		47.136,10.718 41.89,10.478 38.454,11.82 	"/>
	<polygon style="fill:#FFFFFF;" points="24.721,34.819 25.82,37.545 29.736,41.421 32.423,41.099 36.689,37.587 36.094,33.109 
		33.685,30.811 29.995,30.632 27.577,31.575 	"/>
	<g>
		<polygon style="fill:#FFFFFF;" points="131.134,14.594 121.227,16.657 101.518,76.141 104.169,76.836 		"/>
		<polygon style="fill:#FFFFFF;" points="147,16.644 136.998,17.451 110.56,74.581 113.069,75.622 		"/>
	</g>
	<g>
		<path style="fill:#FFFFFF;" d="M92.353,45.565c0,0-5.112,1.915-6.983,6.224c-1.86,4.315-1.008,11.314-1.008,11.314
			s1.372,6.051,6.488,4.813c5.116-1.23,10.722-8.13,10.71-10.825C101.556,54.405,102.569,42.405,92.353,45.565z"/>
		<polygon style="fill:#FFFFFF;" points="94.387,46.898 104.372,0.456 111.895,0 97.76,48.883 		"/>
	</g>
</g>
</svg>
